 http://desibbrg.org/images/66952052392581364616.gif 
http://desibbrg.org/images/31537019500998195262.jpg 
http://desibbrg.org/images/86547470908671533820.png 
http://desibbrg.org/images/97787390350612663319.png 
http://desibbrg.org/images/71165713789769896730.png 
http://desibbrg.org/images/05151132406583786299.png

Media Info - 
Video
ID : 224 (0xE0)
Format : MPEG Video
Format version : Version 2
Format settings, BVOP : Yes
Format settings, Matrix : Custom
Format settings, GOP : Variable
Duration : 1h 47mn
Bit rate : 743 Kbps
Maximum bit rate : 1 150 Kbps
Width : 352 pixels
Height : 288 pixels
Display aspect ratio : 1.222
Frame rate : 25.000 fps
Standard : PAL
Color space : YUV
Bit depth : 8 bits
Scan type : Progressive
Compression mode : Lossy
Bits/(Pixel*Frame) : 0.293
Stream size : 573 MiB (90%)

Audio
ID : 192 (0xC0)
Format : MPEG Audio
Format version : Version 1
Format profile : Layer 2
Duration : 1h 47mn
Bit rate mode : Constant
Bit rate : 64.0 Kbps
Channel(s) : 2 channels
Sampling rate : 48.0 KHz
Compression mode : Lossy
Stream size : 49.3 MiB (8%)

Sharer : TJ_DA_King

Seeding 24x7... Extreme Seeding...


Enjoy!
